<svg width="24" height="24" fill="none" xmlns="http://www.w3.org/2000/svg"><path d="M9.75 3h3.13c.4 0 .78.16 1.06.44l6.62 6.62c.28.28.44.66.44 1.06v9.13a2.25 2.25 0 01-2.25 2.25H9a2.25 2.25 0 01-2.25-2.25v-6" stroke="#9C9C9C" stroke-linecap="round" stroke-linejoin="round"/><path d="M13.5 3.38V9a1.5 1.5 0 001.5 1.5h5.63" stroke="#9C9C9C" stroke-linecap="round" stroke-linejoin="round"/><path d="M7.5 3.75v7.13A1.11 1.11 0 016.37 12c-.56 0-1.12-.43-1.12-1.13V4.13c0-1.44.78-2.63 2.25-2.63s2.25 1.16 2.25 2.6v6.5c0 2.02-1.3 3.65-3.38 3.65C4.3 14.25 3 12.62 3 10.6V6.75" stroke="#9C9C9C" stroke-miterlimit="10" stroke-linecap="round"/></svg>