<svg width="38" height="40" fill="none" xmlns="http://www.w3.org/2000/svg"><path d="M19 1.25C9.16 1.25 1.19 9.65 1.19 20c0 10.36 7.97 18.75 17.81 18.75S36.81 30.35 36.81 20C36.81 9.64 28.84 1.25 19 1.25zM2.82 22.3l5.09 1.34a12.76 12.76 0 001.39 6.68l-2.57 1a17.56 17.56 0 01-3.9-9.02zM19 37.2c-4.07 0-7.8-1.58-10.65-4.18l2.12-.85A10.8 10.8 0 0019 36.48a10.8 10.8 0 008.53-4.32l2.12.85A15.79 15.79 0 0119 37.19zM9.35 24.42c0-3.62 2.22-4.35 5.8-4.35.65 0 1.32.03 1.97.05a51 51 0 003.76 0c.65-.02 1.32-.05 1.97-.05 3.58 0 5.8.73 5.8 4.35 0 5.79-4.33 10.5-9.65 10.5s-9.65-4.71-9.65-10.5zm21.92 6.9l-2.57-1a12.76 12.76 0 001.4-6.68l5.08-1.34a17.54 17.54 0 01-3.91 9.03zm-1.7-9.8c-1.39-3-4.98-3-6.72-3-.67 0-1.35.01-2.02.04a49.6 49.6 0 01-3.66 0c-.67-.03-1.35-.05-2.02-.05-1.74 0-5.33.01-6.72 3.01l-5.76-1.5V20c0-3.7 1.12-7.12 3-9.92.23.31.59.59.74.45a8.04 8.04 0 016.94-1.96c.35.07.65-1.26.23-1.35a9.33 9.33 0 00-6.74 1.33C9.84 5.03 14.17 2.8 19 2.8c4.91 0 9.32 2.3 12.32 5.93a9.34 9.34 0 00-6.9-1.42c-.42.08-.12 1.42.23 1.34a8.15 8.15 0 016.94 1.96c.16.15.55-.16.76-.5A17.7 17.7 0 0135.33 20v.02l-5.76 1.5z" fill="#DC1E1E"/><path d="M22.02 12.53c-.46.17-.8.19-.74.46 1.2 5.49 6.06 6.86 9.7 2.74.18-.2-.1-.4-.42-.79-2.94 1.32-6.8.03-8.54-2.4zM15.98 12.53c-1.9 2.69-5.88 3.6-8.54 2.41-.31.38-.6.58-.42.79 3.64 4.12 8.5 2.75 9.7-2.74.06-.27-.28-.3-.74-.46" fill="#DC1E1E"/></svg>