<svg width="38" height="40" fill="none" xmlns="http://www.w3.org/2000/svg"><path d="M19 1.25C9.16 1.25 1.19 9.65 1.19 20c0 10.36 7.97 18.75 17.81 18.75S36.81 30.35 36.81 20C36.81 9.64 28.84 1.25 19 1.25zm10.92 30.24a15.3 15.3 0 01-4.99 3.5 14.67 14.67 0 01-5.87 1.23c-8.5 0-15.39-7.25-15.39-16.2 0-8.94 6.89-16.19 15.39-16.19 8.49 0 15.38 7.25 15.38 16.2 0 2.2-.43 4.38-1.25 6.4l.03-.1a16.35 16.35 0 01-3.3 5.16z" fill="#15CE3D"/><path d="M11.28 15.63h2.97v3.12h-2.97v-3.13zM23.75 15.63h2.97v3.12h-2.97v-3.13zM25.1 24a6.5 6.5 0 01-2.28 3 6 6 0 01-3.48 1.13h-.68A6 6 0 0115.2 27a6.48 6.48 0 01-2.28-2.97l-.02-.04-.1-.25h-2.55l.45 1.18a8.64 8.64 0 008 5.7h.63a8.3 8.3 0 004.8-1.54 8.98 8.98 0 003.17-4.1l.02-.06.45-1.18H25.2l-.1.25z" fill="#15CE3D"/></svg>