<svg width="32" height="33" fill="none" xmlns="http://www.w3.org/2000/svg"><mask id="a" maskUnits="userSpaceOnUse" x="0" y="0" width="32" height="33"><path d="M.05.22h31.73V32.2H.05V.22z" fill="#fff"/></mask><g mask="url(#a)"><path fill-rule="evenodd" clip-rule="evenodd" d="M15.89.22A15.96 15.96 0 000 16.21C0 25.02 7.13 32.2 15.89 32.2c8.76 0 15.89-7.18 15.89-16 0-8.8-7.13-15.98-15.9-15.98zm7.09 12.33v.48c0 4.86-3.67 10.47-10.4 10.47-1.99 0-3.94-.57-5.6-1.66a7.3 7.3 0 005.41-1.52 3.66 3.66 0 01-3.42-2.56c.55.11 1.12.09 1.65-.06a3.67 3.67 0 01-2.93-3.6v-.05a3.6 3.6 0 001.66.46A3.68 3.68 0 018.22 9.6a10.36 10.36 0 007.53 3.84 3.67 3.67 0 016.23-3.36 7.2 7.2 0 002.33-.89 3.7 3.7 0 01-1.61 2.04 7.21 7.21 0 002.1-.58 7.46 7.46 0 01-1.82 1.9z" fill="#295091"/></g></svg>